<svg width="16" height="16" viewBox="0 0 16 16" fill="none" xmlns="http://www.w3.org/2000/svg">
<path d="M5.21718 11.293L7.64021 10.4853L14.7113 3.41421C15.1018 3.02369 15.1018 2.39052 14.7113 2L14.0042 1.29289C13.6137 0.902369 12.9805 0.902369 12.59 1.29289L5.51889 8.36396L4.71122 10.787C4.60698 11.0997 4.90448 11.3972 5.21718 11.293ZM13.2971 2L14.0042 2.70711L7.10003 9.61125L6.03937 9.9648L6.39293 8.90414L13.2971 2Z" fill="currentColor"/>
<path d="M3 3H9.46448L8.46448 4H3L3 13H12V7.53555L13 6.53555V13C13 13.5523 12.5523 14 12 14H3C2.44771 14 2 13.5523 2 13V4C2 3.44772 2.44772 3 3 3Z" fill="currentColor"/>
</svg>
