<svg width="22" height="22" viewBox="0 0 22 22" fill="none" xmlns="http://www.w3.org/2000/svg">
<path d="M13.1628 6.22029C12.8964 5.98705 12.5809 5.80984 12.2196 5.68522C11.8572 5.56174 11.4696 5.5 11.0523 5.5C10.1811 5.5 9.44934 5.74467 8.85939 6.23515C8.27058 6.72563 7.91044 7.40248 7.78239 8.26454L9.29842 8.41202C9.35787 7.91697 9.53852 7.51681 9.8415 7.20811C10.1433 6.90285 10.5366 6.7485 11.0225 6.7485C11.2398 6.7485 11.4467 6.78852 11.6399 6.86626C11.8331 6.94744 11.9978 7.05491 12.1384 7.19439C12.2768 7.33388 12.3877 7.49851 12.4723 7.69173C12.5557 7.88495 12.598 8.09533 12.598 8.32399C12.598 8.55151 12.5557 8.7573 12.4723 8.94023C12.3877 9.12431 12.2813 9.29581 12.1521 9.46044C12.0241 9.62508 11.88 9.78286 11.7211 9.93606C11.5633 10.0904 11.4044 10.2413 11.2455 10.3888C11.0465 10.5786 10.8819 10.7387 10.7481 10.8724C10.6144 11.0073 10.508 11.1457 10.428 11.2886C10.3491 11.4338 10.2885 11.5939 10.2497 11.7711C10.2096 11.9506 10.1902 12.1724 10.1902 12.4399V13.3466H11.6171V12.6926C11.6171 12.4845 11.6262 12.3119 11.6468 12.1724C11.6662 12.034 11.704 11.9083 11.7577 11.7939C11.8126 11.6796 11.8869 11.5721 11.9818 11.467C12.0755 11.3629 12.2013 11.2372 12.3602 11.0885L12.5089 10.9548L13.4018 10.0332C13.5996 9.78514 13.7528 9.5199 13.8614 9.23864C13.9711 8.9551 14.0249 8.62582 14.0249 8.24853C14.0249 7.81407 13.9483 7.42534 13.7951 7.08235C13.6407 6.7405 13.4304 6.45352 13.1628 6.22029Z" fill="currentColor"/>
<path d="M11.0305 14.2424C10.7641 14.2424 10.5321 14.3396 10.34 14.5328C10.1468 14.7272 10.0507 14.957 10.0507 15.2245C10.0507 15.4921 10.1468 15.7219 10.34 15.9151C10.5321 16.1094 10.7641 16.2055 11.0305 16.2055C11.2981 16.2055 11.529 16.1094 11.7211 15.9151C11.9143 15.7219 12.0115 15.4921 12.0115 15.2245C12.0115 14.957 11.9143 14.7272 11.7211 14.5328C11.529 14.3396 11.2981 14.2424 11.0305 14.2424Z" fill="currentColor"/>
<path d="M20.625 11C20.625 16.3157 16.3157 20.625 11 20.625C5.68426 20.625 1.375 16.3157 1.375 11C1.375 5.68426 5.68426 1.375 11 1.375C16.3157 1.375 20.625 5.68426 20.625 11ZM19.25 11C19.25 6.44365 15.5563 2.75 11 2.75C6.44365 2.75 2.75 6.44365 2.75 11C2.75 15.5563 6.44365 19.25 11 19.25C15.5563 19.25 19.25 15.5563 19.25 11Z" fill="currentColor"/>
</svg>
