<svg width="16" height="16" viewBox="0 0 16 16" fill="none" xmlns="http://www.w3.org/2000/svg">
<path d="M8.42857 2.01507V4.59795C8.28817 4.58045 8.14514 4.57143 8 4.57143C7.85486 4.57143 7.71183 4.58045 7.57143 4.59795V2.01507C7.71299 2.00508 7.8559 2 8 2C8.1441 2 8.28701 2.00508 8.42857 2.01507Z" fill="currentColor"/>
<path d="M11.9288 3.46508L10.1024 5.29148C10.3288 5.46746 10.5325 5.67119 10.7085 5.89757L12.5349 4.07117C12.3475 3.85505 12.1449 3.65247 11.9288 3.46508Z" fill="currentColor"/>
<path d="M13.9849 7.57143H11.402C11.4196 7.71183 11.4286 7.85486 11.4286 8C11.4286 8.14514 11.4196 8.28817 11.402 8.42857H13.9849C13.9949 8.28701 14 8.1441 14 8C14 7.8559 13.9949 7.71299 13.9849 7.57143Z" fill="currentColor"/>
<path d="M12.5349 11.9288L10.7085 10.1024C10.5325 10.3288 10.3288 10.5325 10.1024 10.7085L11.9288 12.5349C12.145 12.3475 12.3475 12.1449 12.5349 11.9288Z" fill="currentColor"/>
<path d="M8.42857 13.9849V11.402C8.28817 11.4196 8.14514 11.4286 8 11.4286C7.85486 11.4286 7.71183 11.4196 7.57143 11.402V13.9849C7.71299 13.9949 7.8559 14 8 14C8.1441 14 8.28701 13.9949 8.42857 13.9849Z" fill="currentColor"/>
<path d="M4.07117 12.5349L5.89757 10.7085C5.67119 10.5325 5.46746 10.3288 5.29148 10.1024L3.46508 11.9288C3.65247 12.1449 3.85505 12.3475 4.07117 12.5349Z" fill="currentColor"/>
<path d="M2.01507 8.42857H4.59795C4.58045 8.28817 4.57143 8.14514 4.57143 8C4.57143 7.85486 4.58045 7.71183 4.59795 7.57143H2.01507C2.00508 7.71299 2 7.8559 2 8C2 8.1441 2.00508 8.28701 2.01507 8.42857Z" fill="currentColor"/>
<path d="M4.07119 3.46507C3.85508 3.65246 3.65249 3.85505 3.4651 4.07116L5.2915 5.89757C5.46748 5.67119 5.67121 5.46745 5.8976 5.29148L4.07119 3.46507Z" fill="currentColor"/>
</svg>
