<svg width="22" height="22" viewBox="0 0 22 22" fill="none" xmlns="http://www.w3.org/2000/svg">
<path d="M11 1.375C16.3157 1.375 20.625 5.68426 20.625 11C20.625 16.3157 16.3157 20.625 11 20.625C5.68426 20.625 1.375 16.3157 1.375 11C1.375 5.68426 5.68426 1.375 11 1.375ZM11 19.25C11.1046 19.25 11.3192 19.2064 11.6398 18.89C11.9663 18.5677 12.3234 18.0333 12.653 17.2643C12.9155 16.6518 13.1433 15.9307 13.3223 15.125H8.6777C8.85668 15.9307 9.08452 16.6518 9.34701 17.2643C9.67658 18.0333 10.0337 18.5677 10.3602 18.89C10.6808 19.2064 10.8954 19.25 11 19.25ZM8.43278 13.75H13.5672C13.6848 12.8926 13.75 11.9688 13.75 11C13.75 10.0312 13.6848 9.10738 13.5672 8.25H8.43278C8.31516 9.10738 8.25 10.0312 8.25 11C8.25 11.9688 8.31516 12.8926 8.43278 13.75ZM14.728 15.125C14.4175 16.6504 13.94 17.955 13.3507 18.9103C15.3911 18.3048 17.1013 16.9314 18.1463 15.125H14.728ZM18.7806 13.75C19.0846 12.8899 19.25 11.9642 19.25 11C19.25 10.0358 19.0846 9.11014 18.7806 8.25H14.9542C15.0653 9.12135 15.125 10.0444 15.125 11C15.125 11.9556 15.0653 12.8787 14.9542 13.75H18.7806ZM7.04582 13.75C6.93468 12.8787 6.875 11.9556 6.875 11C6.875 10.0444 6.93468 9.12135 7.04582 8.25H3.21944C2.91542 9.11014 2.75 10.0358 2.75 11C2.75 11.9642 2.91542 12.8899 3.21944 13.75H7.04582ZM3.8537 15.125C4.89865 16.9314 6.60885 18.3048 8.6493 18.9103C8.06 17.955 7.58253 16.6504 7.27196 15.125H3.8537ZM8.6777 6.875H13.3223C13.1433 6.0693 12.9155 5.3482 12.653 4.73574C12.3234 3.96674 11.9663 3.43228 11.6398 3.11003C11.3192 2.79362 11.1046 2.75 11 2.75C10.8954 2.75 10.6808 2.79362 10.3602 3.11003C10.0337 3.43228 9.67658 3.96674 9.34701 4.73574C9.08452 5.3482 8.85668 6.0693 8.6777 6.875ZM14.728 6.875H18.1463C17.1013 5.0686 15.3911 3.69517 13.3507 3.08973C13.94 4.04498 14.4175 5.34956 14.728 6.875ZM8.6493 3.08973C6.60885 3.69517 4.89865 5.0686 3.8537 6.875H7.27196C7.58253 5.34956 8.06 4.04498 8.6493 3.08973Z" fill="currentColor"/>
</svg>
