<svg width="24" height="24" viewBox="0 0 24 24" fill="none" xmlns="http://www.w3.org/2000/svg">
<path d="M19 8C19 10.2091 17.2091 13 15 13C12.7909 13 11 10.2091 11 8C11 5.79086 12.7909 4 15 4C17.2091 4 19 5.79086 19 8ZM15 11.5C15.45 11.5 16.0555 11.1992 16.6246 10.4336C17.1825 9.68299 17.5 8.74067 17.5 8C17.5 6.61929 16.3807 5.5 15 5.5C13.6193 5.5 12.5 6.61929 12.5 8C12.5 8.74067 12.8175 9.68299 13.3754 10.4336C13.9445 11.1992 14.55 11.5 15 11.5Z" fill="#FDFDFD"/>
<path d="M22.5 21C22.5 22 20 22.5 15 22.5C10 22.5 7 22 7 21C7 17.5 10 14 15 14C20 14 22.5 17.5 22.5 21ZM20.3308 20.6541C20.6165 20.597 20.8272 20.5392 20.9777 20.4888C20.8708 19.27 20.3819 18.1072 19.5388 17.222C18.5972 16.2333 17.1277 15.5 15 15.5C11.0619 15.5 8.83015 17.9983 8.53391 20.4433C8.73231 20.5079 9.01297 20.58 9.39333 20.6492C10.6351 20.875 12.5289 21 15 21C17.4763 21 19.2307 20.8741 20.3308 20.6541ZM8.18276 20.2926C8.18276 20.2926 8.18864 20.2958 8.19784 20.3026C8.18693 20.2961 8.18276 20.2926 8.18276 20.2926Z" fill="#FDFDFD"/>
<path d="M9.80634 9.93052C9.58895 9.99327 9.36457 10.027 9.13513 10.027C7.16482 10.027 5.56757 7.53788 5.56757 5.56757C5.56757 3.59725 7.16482 2 9.13513 2C10.2931 2 11.3222 2.55168 11.974 3.40655C11.5524 3.68483 11.1714 4.01958 10.8417 4.40003C10.4692 3.85654 9.84381 3.5 9.13513 3.5C7.99325 3.5 7.06757 4.42568 7.06757 5.56757C7.06757 6.18883 7.33668 6.99601 7.81635 7.64134C8.30717 8.30168 8.80458 8.52703 9.13513 8.52703C9.2459 8.52703 9.3754 8.50172 9.51711 8.44323C9.55498 8.93967 9.65472 9.44107 9.80634 9.93052Z" fill="#9DCEFB"/>
<path d="M10.2211 10.9843C9.8751 10.9413 9.51313 10.9189 9.13514 10.9189C4.67568 10.9189 2 14.0405 2 17.1622C2 17.8144 3.43084 18.2281 5.94374 18.4034C6.12043 17.8979 6.34813 17.4084 6.62369 16.9418C5.61741 16.8898 4.79348 16.8043 4.1636 16.6897C3.90582 16.6429 3.70321 16.595 3.54771 16.5508C3.86604 14.4983 5.77302 12.4189 9.13514 12.4189C10.0591 12.4189 10.837 12.577 11.4847 12.8401C11.2966 12.641 11.124 12.4335 10.9677 12.2232C10.6843 11.842 10.4326 11.4242 10.2211 10.9843ZM3.14185 16.3948C3.14185 16.3948 3.14695 16.3975 3.15515 16.4032C3.14561 16.3977 3.14185 16.3948 3.14185 16.3948Z" fill="#9DCEFB"/>
</svg>
