<svg width="24" height="24" viewBox="0 0 24 24" fill="none" xmlns="http://www.w3.org/2000/svg">
<path d="M19.5 5.4C19.5552 5.4 19.6 5.44477 19.6 5.5V18.5C19.6 18.5552 19.5552 18.6 19.5 18.6H4.5C4.44477 18.6 4.4 18.5552 4.4 18.5V5.5C4.4 5.44477 4.44477 5.4 4.5 5.4H19.5ZM4.5 4C3.67157 4 3 4.67157 3 5.5V18.5C3 19.3284 3.67157 20 4.5 20H19.5C20.3284 20 21 19.3284 21 18.5V5.5C21 4.67157 20.3284 4 19.5 4H4.5Z" fill="#FDFDFD"/>
<path d="M17.5 7H16V17H17.5V7Z" fill="#9DCEFB"/>
<path d="M10 9.5H11.5V17H10V9.5Z" fill="#9DCEFB"/>
<path d="M14.5 11H13V17H14.5V11Z" fill="#9DCEFB"/>
<path d="M8.5 12.5H7V17H8.5V12.5Z" fill="#9DCEFB"/>
</svg>
