<svg width="24" height="24" viewBox="0 0 24 24" fill="none" xmlns="http://www.w3.org/2000/svg">
<path d="M18 17.2929V14.5H17V17.7071L19.1464 19.8536L19.8536 19.1464L18 17.2929Z" fill="#FDFDFD"/>
<path d="M23 17.5C23 20.5376 20.5376 23 17.5 23C14.4624 23 12 20.5376 12 17.5C12 14.4624 14.4624 12 17.5 12C20.5376 12 23 14.4624 23 17.5ZM21.5 17.5C21.5 15.2909 19.7091 13.5 17.5 13.5C15.2909 13.5 13.5 15.2909 13.5 17.5C13.5 19.7091 15.2909 21.5 17.5 21.5C19.7091 21.5 21.5 19.7091 21.5 17.5Z" fill="#FDFDFD"/>
<path d="M5.5 3.5H17.5V10.5H19V3.5C19 2.67157 18.3284 2 17.5 2H5.5C4.67157 2 4 2.67157 4 3.5V20.5C4 21.3284 4.67157 22 5.5 22H11.5V20.5H5.5V3.5Z" fill="#FDFDFD"/>
<path d="M7 6H11V7.5H7V6Z" fill="#9DCEFB"/>
<path d="M7 9.5H12V11H7V9.5Z" fill="#9DCEFB"/>
<path d="M7 13H10V14.5H7V13Z" fill="#9DCEFB"/>
</svg>
