<svg width="24" height="24" viewBox="0 0 24 24" fill="none" xmlns="http://www.w3.org/2000/svg">
<path d="M15 4.4C15 4.17909 15.1791 4 15.4 4H16.1C16.3209 4 16.5 4.17909 16.5 4.4V8.6C16.5 8.82091 16.3209 9 16.1 9H15.4C15.1791 9 15 8.82091 15 8.6V4.4Z" fill="white"/>
<path d="M15 15.4C15 15.1791 15.1791 15 15.4 15H16.1C16.3209 15 16.5 15.1791 16.5 15.4V19.6C16.5 19.8209 16.3209 20 16.1 20H15.4C15.1791 20 15 19.8209 15 19.6V15.4Z" fill="white"/>
<path d="M2 5.75H13.5V7.25H2V5.75Z" fill="white"/>
<path d="M22 7.25H18V5.75H22V7.25Z" fill="white"/>
<path d="M4.5 12.75H2V11.25H4.5V12.75Z" fill="white"/>
<path d="M9 12.75H22V11.25H9V12.75Z" fill="white"/>
<path d="M2 18.25H13.5V16.75H2V18.25Z" fill="white"/>
<path d="M22 18.25H18V16.75H22V18.25Z" fill="white"/>
<path d="M6 9.9C6 9.67909 6.17909 9.5 6.4 9.5H7.1C7.32091 9.5 7.5 9.67909 7.5 9.9V14.1C7.5 14.3209 7.32091 14.5 7.1 14.5H6.4C6.17909 14.5 6 14.3209 6 14.1V9.9Z" fill="#9DCEFB"/>
</svg>
