<svg width="184" height="22" viewBox="0 0 184 22" fill="none" xmlns="http://www.w3.org/2000/svg">
<path d="M52.3403 17H53.8745V12.468L55.0208 11.163L58.918 17H60.7343L56.0965 10.1579L60.3993 5.11441H58.4947L54.8621 9.57591C54.5623 9.96387 54.2448 10.3871 53.9274 10.8456H53.8745V5.11441H52.3403V17Z" fill="white"/>
<path d="M60.441 8.46495L63.5799 16.3299C63.6681 16.5239 63.7034 16.6473 63.7034 16.7355C63.7034 16.8237 63.6505 16.9471 63.5799 17.1058C63.2096 17.8994 62.6982 18.4989 62.275 18.834C61.8165 19.2219 61.3051 19.4688 60.9171 19.5923L61.3051 20.8796C61.693 20.809 62.4337 20.5445 63.2096 19.892C64.2677 18.9574 65.0259 17.4761 66.1369 14.5488L68.4647 8.46495H66.8247L65.1318 13.4731C64.9201 14.0903 64.7438 14.7428 64.5851 15.2542H64.5498C64.4087 14.7428 64.1971 14.0727 63.9855 13.5084L62.1339 8.46495H60.441Z" fill="white"/>
<path d="M69.8702 17H71.422V4.47957H69.8702V17Z" fill="white"/>
<path d="M75.5895 17V8.46495H74.0377V17H75.5895ZM74.8136 5.09678C74.2317 5.09678 73.8437 5.53764 73.8437 6.06667C73.8437 6.5957 74.214 7.01893 74.7783 7.01893C75.3955 7.01893 75.7659 6.5957 75.7659 6.06667C75.7659 5.52 75.3779 5.09678 74.8136 5.09678Z" fill="white"/>
<path d="M78.1707 17H79.7226V11.8684C79.7226 11.6039 79.7578 11.3394 79.8284 11.1454C80.1105 10.2813 80.9041 9.55828 81.9092 9.55828C83.3729 9.55828 83.8843 10.7045 83.8843 12.08V17H85.4361V11.9213C85.4361 8.99398 83.6021 8.2886 82.4206 8.2886C81.0099 8.2886 80.0224 9.08215 79.5991 9.8757H79.5639L79.4757 8.46495H78.1002C78.1531 9.17032 78.1707 9.8757 78.1707 10.7751V17Z" fill="white"/>
<path d="M102.041 17H103.557L102.817 5.11441H100.859L98.7431 10.8632C98.214 12.3622 97.7908 13.6671 97.4734 14.8662H97.4381C97.1207 13.6318 96.7328 12.3269 96.239 10.8632L94.211 5.11441H92.2536L91.4248 17H92.8885L93.2059 11.9037C93.3117 10.1049 93.3998 8.12989 93.4351 6.6486H93.4704C93.8054 8.05936 94.2639 9.57592 94.8282 11.2688L96.768 16.9295H97.9319L100.03 11.163C100.63 9.52301 101.106 8.02409 101.529 6.6486H101.565C101.565 8.11226 101.67 10.1226 101.759 11.7802L102.041 17Z" fill="white"/>
<path d="M105.915 16.9647C106.691 17.0529 107.59 17.1058 108.701 17.1058C111.012 17.1058 112.846 16.5062 113.974 15.3953C115.067 14.3019 115.685 12.7148 115.685 10.7751C115.685 8.8529 115.067 7.47742 113.992 6.50753C112.951 5.55527 111.382 5.02624 109.178 5.02624C107.961 5.02624 106.85 5.13204 105.915 5.29075V16.9647ZM107.449 6.40172C107.855 6.31355 108.455 6.24301 109.248 6.24301C112.493 6.24301 114.08 8.02409 114.062 10.828C114.062 14.0374 112.299 15.8714 109.001 15.8714C108.402 15.8714 107.837 15.8538 107.449 15.8009V6.40172Z" fill="white"/>
<path d="M125.466 17L121.763 10.8985L125.378 5.11441H123.597L121.992 7.90065C121.551 8.65893 121.251 9.20559 120.916 9.91097H120.863C120.546 9.27613 120.211 8.67656 119.77 7.90065L118.201 5.11441H116.42L119.911 10.9867L116.278 17H118.042L119.47 14.3901C120.07 13.3497 120.423 12.7148 120.758 12.0271H120.793C121.163 12.7148 121.533 13.3673 122.151 14.3725L123.685 17H125.466Z" fill="white"/>
<path d="M128.285 4H128.687V2.55574H129.173V2.21716H127.803V2.55574H128.285V4Z" fill="white"/>
<path d="M130.914 4H131.305L131.21 2.21716H130.681L130.493 2.80968C130.432 3.00807 130.372 3.24349 130.324 3.44981H130.313C130.274 3.24084 130.221 3.01865 130.163 2.81232L129.988 2.21716H129.451L129.337 4H129.71L129.745 3.32284C129.755 3.10065 129.766 2.82555 129.774 2.58484H129.779C129.824 2.81761 129.882 3.07155 129.94 3.28316L130.131 3.9709H130.446L130.663 3.27523C130.731 3.06626 130.805 2.81232 130.864 2.58484H130.869C130.869 2.84407 130.877 3.10329 130.885 3.31755L130.914 4Z" fill="white"/>
</svg>
