<svg width="22" height="22" viewBox="0 0 22 22" fill="none" xmlns="http://www.w3.org/2000/svg">
<path d="M17.7686 18.3289H12.4814L9.83771 13.75L12.4814 9.17107L17.7686 9.17108L20.4123 13.75L17.7686 18.3289ZM21.6031 14.4375C21.8487 14.0121 21.8487 13.4879 21.6031 13.0625L18.9594 8.48358C18.7138 8.05815 18.2599 7.79607 17.7686 7.79607H12.4814C11.9901 7.79607 11.5362 8.05815 11.2906 8.48357L8.64693 13.0625C8.40131 13.4879 8.40131 14.0121 8.64693 14.4375L11.2906 19.0164C11.5362 19.4419 11.9901 19.7039 12.4814 19.7039H17.7686C18.2599 19.7039 18.7138 19.4419 18.9594 19.0164L21.6031 14.4375Z" fill="currentColor"/>
<path d="M15.125 15.125C14.3656 15.125 13.75 14.5094 13.75 13.75C13.75 12.9906 14.3656 12.375 15.125 12.375C15.8844 12.375 16.5 12.9906 16.5 13.75C16.5 14.5094 15.8844 15.125 15.125 15.125ZM15.125 16.5C16.6438 16.5 17.875 15.2688 17.875 13.75C17.875 12.2312 16.6438 11 15.125 11C13.6062 11 12.375 12.2312 12.375 13.75C12.375 15.2688 13.6062 16.5 15.125 16.5Z" fill="currentColor"/>
<path d="M2.75 2.75C1.99061 2.75 1.375 3.36561 1.375 4.125V13.75C1.375 14.5094 1.99061 15.125 2.75 15.125H7.66886L6.875 13.75H2.75L2.75 4.125H16.5V6.60529H17.875V4.125C17.875 3.36561 17.2594 2.75 16.5 2.75H2.75Z" fill="currentColor"/>
<path d="M8.06579 15.8125L8.85964 17.1875H5.5V15.8125H8.06579Z" fill="currentColor"/>
</svg>
